<svg width="21" height="10" viewBox="0 0 21 10" fill="none" xmlns="http://www.w3.org/2000/svg">
<path d="M14.0083 1.29816L5.58756 9.75698C5.26485 10.0814 4.74236 10.0809 4.42008 9.75615L0.227225 5.53455C0.0661855 5.37226 0.0661855 5.10851 0.227225 4.94622L0.81159 4.35832C0.97263 4.19603 1.23429 4.19603 1.39554 4.35832L4.72257 7.70826C4.88361 7.87055 5.14527 7.87055 5.30652 7.70826L12.841 0.121717C13.002 -0.0405723 13.2637 -0.0405723 13.4249 0.121717L14.0089 0.709624C14.1703 0.872539 14.1699 1.13587 14.0083 1.29816ZM20.4034 0.709833L19.828 0.121925C19.6692 -0.0403641 19.4113 -0.0403641 19.2526 0.121925L11.8285 7.70826C11.6693 7.87055 11.4118 7.87055 11.2527 7.70826L10.6575 7.09994C10.4987 6.93765 10.2412 6.93723 10.0821 7.09952L9.50583 7.6866C9.34667 7.84889 9.34625 8.11263 9.50541 8.27534L10.9548 9.75594C11.2721 10.0807 11.7873 10.0811 12.105 9.75677L20.4025 1.29795C20.5623 1.13587 20.5623 0.872122 20.4034 0.709833Z" fill="#1246CB"/>
</svg>
